<mxfile host="app.diagrams.net" modified="2022-08-30T14:00:25.445Z" agent="5.0 (Windows)" etag="SZbMfcxfraVf-UUmIKxN" version="20.2.7" type="github">
  <diagram id="n3J12_eJR1-_yoJtubnV" name="Page-1">
    <mxGraphModel dx="2062" dy="1112" grid="1" gridSize="10" guides="1" tooltips="1" connect="1" arrows="1" fold="1" page="1" pageScale="1" pageWidth="827" pageHeight="1169" math="0" shadow="0">
      <root>
        <mxCell id="0" />
        <mxCell id="1" parent="0" />
        <mxCell id="JZpX6_1taqvonKgvTCwn-1" value="" style="ellipse;html=1;shape=startState;" vertex="1" parent="1">
          <mxGeometry x="384" y="20" width="30" height="30" as="geometry" />
        </mxCell>
        <mxCell id="JZpX6_1taqvonKgvTCwn-2" value="" style="edgeStyle=orthogonalEdgeStyle;html=1;verticalAlign=bottom;endArrow=open;endSize=8;rounded=0;" edge="1" source="JZpX6_1taqvonKgvTCwn-1" parent="1">
          <mxGeometry relative="1" as="geometry">
            <mxPoint x="399" y="110" as="targetPoint" />
          </mxGeometry>
        </mxCell>
        <mxCell id="JZpX6_1taqvonKgvTCwn-3" value="" style="ellipse;html=1;shape=endState;fillColor=#000000;strokeColor=#FFFFFF;" vertex="1" parent="1">
          <mxGeometry x="384" y="850" width="30" height="30" as="geometry" />
        </mxCell>
        <mxCell id="JZpX6_1taqvonKgvTCwn-25" style="edgeStyle=orthogonalEdgeStyle;rounded=0;orthogonalLoop=1;jettySize=auto;html=1;" edge="1" parent="1" source="JZpX6_1taqvonKgvTCwn-4" target="JZpX6_1taqvonKgvTCwn-16">
          <mxGeometry relative="1" as="geometry" />
        </mxCell>
        <mxCell id="JZpX6_1taqvonKgvTCwn-4" value="Log in " style="ellipse;whiteSpace=wrap;html=1;" vertex="1" parent="1">
          <mxGeometry x="329" y="110" width="140" height="70" as="geometry" />
        </mxCell>
        <mxCell id="JZpX6_1taqvonKgvTCwn-14" value="" style="edgeStyle=orthogonalEdgeStyle;rounded=0;orthogonalLoop=1;jettySize=auto;html=1;" edge="1" parent="1" source="JZpX6_1taqvonKgvTCwn-11" target="JZpX6_1taqvonKgvTCwn-13">
          <mxGeometry relative="1" as="geometry" />
        </mxCell>
        <mxCell id="JZpX6_1taqvonKgvTCwn-27" style="edgeStyle=orthogonalEdgeStyle;rounded=0;orthogonalLoop=1;jettySize=auto;html=1;" edge="1" parent="1" source="JZpX6_1taqvonKgvTCwn-11" target="JZpX6_1taqvonKgvTCwn-29">
          <mxGeometry relative="1" as="geometry">
            <mxPoint x="399" y="700" as="targetPoint" />
            <Array as="points">
              <mxPoint x="400" y="640" />
              <mxPoint x="399" y="640" />
            </Array>
          </mxGeometry>
        </mxCell>
        <mxCell id="JZpX6_1taqvonKgvTCwn-28" value="&lt;div&gt;Licence(s) OK&lt;/div&gt;" style="edgeLabel;html=1;align=center;verticalAlign=middle;resizable=0;points=[];" vertex="1" connectable="0" parent="JZpX6_1taqvonKgvTCwn-27">
          <mxGeometry x="-0.2459" y="-3" relative="1" as="geometry">
            <mxPoint as="offset" />
          </mxGeometry>
        </mxCell>
        <mxCell id="JZpX6_1taqvonKgvTCwn-11" value="Verify Licence" style="rhombus;whiteSpace=wrap;html=1;" vertex="1" parent="1">
          <mxGeometry x="359" y="500" width="80" height="80" as="geometry" />
        </mxCell>
        <mxCell id="JZpX6_1taqvonKgvTCwn-13" value="Redirect to FFT" style="ellipse;whiteSpace=wrap;html=1;" vertex="1" parent="1">
          <mxGeometry x="696" y="110" width="120" height="60" as="geometry" />
        </mxCell>
        <mxCell id="JZpX6_1taqvonKgvTCwn-15" value="No Licence" style="text;html=1;align=center;verticalAlign=middle;resizable=0;points=[];autosize=1;strokeColor=none;fillColor=none;" vertex="1" parent="1">
          <mxGeometry x="696" y="350" width="90" height="30" as="geometry" />
        </mxCell>
        <mxCell id="JZpX6_1taqvonKgvTCwn-22" value="" style="edgeStyle=orthogonalEdgeStyle;rounded=0;orthogonalLoop=1;jettySize=auto;html=1;" edge="1" parent="1" source="JZpX6_1taqvonKgvTCwn-16" target="JZpX6_1taqvonKgvTCwn-21">
          <mxGeometry relative="1" as="geometry" />
        </mxCell>
        <mxCell id="JZpX6_1taqvonKgvTCwn-16" value="Select court" style="ellipse;whiteSpace=wrap;html=1;" vertex="1" parent="1">
          <mxGeometry x="339" y="220" width="120" height="60" as="geometry" />
        </mxCell>
        <mxCell id="JZpX6_1taqvonKgvTCwn-26" style="edgeStyle=orthogonalEdgeStyle;rounded=0;orthogonalLoop=1;jettySize=auto;html=1;" edge="1" parent="1" source="JZpX6_1taqvonKgvTCwn-21" target="JZpX6_1taqvonKgvTCwn-11">
          <mxGeometry relative="1" as="geometry" />
        </mxCell>
        <mxCell id="JZpX6_1taqvonKgvTCwn-21" value="Invite people" style="ellipse;whiteSpace=wrap;html=1;" vertex="1" parent="1">
          <mxGeometry x="339" y="370" width="120" height="60" as="geometry" />
        </mxCell>
        <mxCell id="JZpX6_1taqvonKgvTCwn-31" style="edgeStyle=orthogonalEdgeStyle;rounded=0;orthogonalLoop=1;jettySize=auto;html=1;entryX=0.5;entryY=0;entryDx=0;entryDy=0;" edge="1" parent="1" source="JZpX6_1taqvonKgvTCwn-29" target="JZpX6_1taqvonKgvTCwn-3">
          <mxGeometry relative="1" as="geometry" />
        </mxCell>
        <mxCell id="JZpX6_1taqvonKgvTCwn-29" value="Confirm Booking" style="ellipse;whiteSpace=wrap;html=1;" vertex="1" parent="1">
          <mxGeometry x="339" y="680" width="120" height="60" as="geometry" />
        </mxCell>
      </root>
    </mxGraphModel>
  </diagram>
</mxfile>
